/* XPM */
static char *_d3adb84f01b433fd14a35dc4017e1e98ZcYANKT3Ysg27VO[] = {
/* columns rows colors chars-per-pixel */
"64 64 2 1 ",
"  c None",
". c black",
/* pixels */
"                                                                ",
"                                                                ",
"                                                                ",
"                                                                ",
"                                                                ",
"                                                                ",
"                              .....                             ",
"                            ..     ..                           ",
"                          ..         ..                         ",
"                         .             .                        ",
"                        .               .                       ",
"                       .                 .                      ",
"                       .                 .                      ",
"                      .                   .                     ",
"                      .                   .                     ",
"                     .                     .                    ",
"                     .                     .                    ",
"                    .                       .                   ",
"                    .                       .                   ",
"                    .        .......        .                   ",
"                   .         .     .         .                  ",
"                   .         .     .         .                  ",
"                   .         .     .         .                  ",
"                   .         .     .         .                  ",
"                  .          .     .          .                 ",
"                  .          .     .          .                 ",
"                  .          .     .          .                 ",
"                  .          .     .          .                 ",
"                  .          .     .          .                 ",
"                  .          .     .          .                 ",
"                  .          .     .          .                 ",
"                  .          .     .          .                 ",
"                  .          .     .          .                 ",
"                  .          .     .          .                 ",
"                  .          .     .          .                 ",
"                  .          .     .          .                 ",
"                  .          .     .          .                 ",
"                   .         .     .         .                  ",
"                   .         .     .         .                  ",
"                   .         .     .         .                  ",
"                   .         .     .         .                  ",
"                    .        .......        .                   ",
"                    .                       .                   ",
"                    .                       .                   ",
"                     .                     .                    ",
"                     .                     .                    ",
"                      .                   .                     ",
"                      .                   .                     ",
"                       .                 .                      ",
"                       .                 .                      ",
"                        .               .                       ",
"                         .             .                        ",
"                          ..         ..                         ",
"                            ..     ..                           ",
"                              .....                             ",
"                                                                ",
"                                                                ",
"                                                                ",
"                                                                ",
"                                                                ",
"                                                                ",
"                                                                ",
"                                                                ",
"                                                                "
};
