/* XPM */
static char *_6d77a79a6f54f8b8c0254ef568ac6cajm1ZzJe8j3Ovevsz[] = {
/* columns rows colors chars-per-pixel */
"64 64 18 1 ",
"  c purple",
". c black",
"X c #0B1324",
"o c #1A2939",
"O c #472E52",
"+ c #06466E",
"@ c #941616",
"# c #DE2121",
"$ c #935C20",
"% c #D1842E",
"& c #FFBA2C",
"* c #70538E",
"= c #6C848E",
"- c #A8B6BD",
"; c #FFDC93",
": c #A78AC6",
"> c #80A2CA",
", c white",
/* pixels */
"                              ......                            ",
"                           ...++&&&%...                         ",
"                          .oo+++++o&&&o.                        ",
"                          .oooo++++o&&;o.                       ",
"                          .oooo++++o&&;o.                       ",
"                         .oooooo++++;;&o.                       ",
"                         .oooo&o++++++&&o..                     ",
"                         .ooo&&;oo++++%%o%%.                    ",
"                         .ooo&&;oo++++%%o%%.                    ",
"                         ..oo%&;;;&+&&;;o%%.                    ",
"                         .%$$oo...&%&&;&$%%.                    ",
"                         .%%%oo*OO.&$$%$%..                     ",
"                         .%%%oo*OO.&$$%$%..                     ",
"                         .$%%o*O,,#@&&$%.                       ",
"                          .ooo****::::::.                       ",
"                          .XXo**:::::::*.                       ",
"                          .XXXo::::::::..                       ",
"                      .....XXXo:::*......                       ",
"                  ....%&&ooooXo:**:*::*.....                    ",
"              ....%%&&%%%&ooooX.**:*::*.$&&%...                 ",
"            ..$$%&&&&&&&&%&&&ooo.......o&$$&%$$..               ",
"            ..$$%&&&&&&&&%&&&ooooooXXXoo&$$&%$$..               ",
"           .&&&&$%%%%&&&&&%%%&&ooooooooo&$$&%$$&%.              ",
"            .%&&&&%%%%%%%%&&&%%&;;;&&&&&$&&%%$$&%.              ",
"             ...%&&&&&%%%%&&&%&%%%%%%%$$%&&%$&&%.               ",
"               .%&&&&&%%%%&&&%&%%%%%%%$$%&&%$&&%.               ",
"              ..++%%&&&&&&&%%&&;;;&&;;&&&&&&&%%.                ",
"             .++oo+++..%%&&&&&;;;;&;&&&&&&&%...                 ",
"             .++Xo+++.+XXX+%%&;;&&&;&&&&%...X.                  ",
"             .++Xo+++.+XXX+%%&;;&&&;&&&&%...X..                 ",
"             .XX++++o.o++oX++++>+++$$$+>+..ooXX.                ",
"            .+XX++++.....++XXXooooo%%%oX.ooooXX.                ",
"            .+oo++oo.    .o+++>>+++&&&+..XXooXX..               ",
"            .+&&;&..     ..&&&;&%%o&&&o&.ooX%%%%.               ",
"            .+&&;&.      ..&&&;&%%o&&&o&.ooX%%%%.               ",
"            .&;;&&..     ..&&;&&$$%%%%$&...o%%%%.               ",
"            .&%%%$$$.    .%%%%$$%%&&&&%$%...$$$$%.              ",
"             .$$%&;;.    .&&&%&%&&&&&&&$%...%%%%%.              ",
"             .$$%&;;..   .&&&%&%&&&&&&&$%...%%%%%.              ",
"             .%%&;;;&&...&&%%&&%&&%%%%&$$%%..%%%%.              ",
"             ...&&&&+++.$%%&&&%+++&&%%oo%$$.++%%%.              ",
"               .%%+++X+.&&&&&+++++..oooo%%%.++$$%.              ",
"               .%%+++X+.&&&&&+++++..oooo%%%.++++$.              ",
"               .&&+++X.oo++--oo+...ooooo=oo.++++%.              ",
"                ..++++.+++-++oo.  .ooooX=oo.+ooo..              ",
"                 .oo++.+++-+++o.  .ooooX=oo..++o.               ",
"                  .....+++-+++o.  .ooooX=oo......               ",
"                      .oo-=+++.    .ooXX===.                    ",
"                      .++++oo.     ...+++..                     ",
"                     .o++++oo.     ...++..                      ",
"                     .+XXXo++.    ..+++o..                      ",
"                     .+XXXo++.    ..+++o..                      ",
"                    .&+XXo+..     .%%%%%%.                      ",
"                    .&&&&&.       .$%%%%$.                      ",
"                    .%%%%&.       .$$$$$.                       ",
"                    .%%%%&.       .$$$$$.                       ",
"                    .&%&&.         .%%$%.                       ",
"                    .%%&&.         .%%$$...                     ",
"                  ..&&%%%.         .$$%%%%%..                   ",
"                  ..&&%%%.         .$$%%%%%..                   ",
"                 .%%&&&&&.         .%%%%%%%%%..                 ",
"                 .&&&&&&&.         ............                 ",
"                 .&&&&&%%.                                      ",
"                  .......                                       "
};
