/* XPM */
static char *_d7d7065deb14eeaeabcca089d2e254f2Ul3w9zZoeNQ4arD[] = {
/* columns rows colors chars-per-pixel */
"64 64 18 1 ",
"  c purple",
". c black",
"X c #0B1324",
"o c #1A2939",
"O c #472E52",
"+ c #06466E",
"@ c #941616",
"# c #DE2121",
"$ c #935C20",
"% c #D1842E",
"& c #FFBA2C",
"* c #70538E",
"= c #6C848E",
"- c #A8B6BD",
"; c #FFDC93",
": c #A78AC6",
"> c #80A2CA",
", c white",
/* pixels */
"                              ......                            ",
"                           ...++&&&%...                         ",
"                          .oo+++++o&&&o.                        ",
"                          .oooo++++o&&;o.                       ",
"                          .oooo++++o&&;o.                       ",
"                         .oooooo++++;;&o.                       ",
"                         .oooo&o++++++&&o..                     ",
"                         .ooo&&;oo++++%%o%%.                    ",
"                         .ooo&&;oo++++%%o%%.                    ",
"                         ..oo%&;;;&+&&;;o%%.                    ",
"                         .%$$oo...&%&&;&$%%.                    ",
"                         .%%%oo*OO.&$$%$%..                     ",
"                         .%%%oo*OO.&$$%$%..                     ",
"                         .$%%o*O,,#@&&$%.                       ",
"                          .ooo****::::::.                       ",
"                          .XXo**:::::::*.                       ",
"                          .XXXo::::::::..                       ",
"                      .....XXXo:::*.,,,..                       ",
"                  ....%&&ooooXo:**:*::*.....                    ",
"              ....%%&&%%%&ooooX.**:*::*.$&&%...                 ",
"             .$$%&&&&&&&&%&&&ooo.......o&$$&%$$.                ",
"            ..$$%&&&&&&&&%&&&ooooooXXXoo&$$&%$$..               ",
"           .&&&&$%%%%&&&&&%%%&&ooooooooo&$$&%$$&%.              ",
"            .%%&&&%%%%%%%%&&&%%&;;;&&&&&$&&%%$$&%.              ",
"             ...%&&&&&%%%%&&&%&%%%%%%%$$%&&%$&&%.               ",
"               .%&&&&&%%%%&&&%&%%%%%%%$$%&&%$&&%.               ",
"              ..++%%&&&&&&&%%&&;;;&&;;&&&&&&&%%.                ",
"             .++oo+++..%%&&&&&;;;;&;&&&&&&&%...                 ",
"             .++Xo+++.+XXX+%%&;;&&&;&&&&%...X.                  ",
"             .++Xo+++.+XXX+%%&;;&&&;&&&&%...X..                 ",
"             .XX++++o.o++oX++++>+++$$$+>+..ooXX.                ",
"            .+XX++++.....++XXXooooo%%%oX.ooooXX.                ",
"            .+oo+++o.    .o+++>>+++&&&+..XXooXX..               ",
"            .++++oo.     ..&&&;&%%o&&&o&.ooXoXX%.               ",
"            .++&&...     .&&&&;&%%o&&&o&.ooXo%%%.               ",
"            .&&;&$$$......&&&;&&$$%%%%$&...o%%%%.               ",
"            .&&&%$$;;.&+o..%%%$$%%&&&&%$%...$$$$%.              ",
"            .&&%%%&;;&&++oo.&%&%&&&&&&&$%...%%%%%.              ",
"            ..%$$$&;&&+++++.&%&%&&&&&&&$%...%%%%%.              ",
"             ...$$%&&%+++oo.%&&%&&%%%%&$$%%..%%%%.              ",
"               ..%.&%%+++++.&&%+++&&%%oo%$$.++%%%.              ",
"                ....%%++++.&&+++++..oooo%%%.++$$%.              ",
"                   ..&.oo..&&+++++..oooo%%%.++++$.              ",
"                     ....++--oo+...ooooo=oo.++++%.              ",
"                       +++-++oo.  .ooooX=oo.+ooo..              ",
"                       +++-+++o.  .ooooX=oo..++o.               ",
"                       +++-+++o.  .ooooX=oo......               ",
"                      .oo-=+++.    .ooXX===.                    ",
"                      .++++oo.     ...+++..                     ",
"                     .o++++oo.     ...++..                      ",
"                     .+XXXo++.    ..+++o..                      ",
"                     .+XXXo++.    ..+++o..                      ",
"                    .&+XXo+..     .%%%%%%.                      ",
"                    .&&&&&.       .$%%%%$.                      ",
"                    .%%%%&.       .$$$$$.                       ",
"                    .%%%%&.       .$$$$$.                       ",
"                    .&%&&.         .%%$%.                       ",
"                    .%%&&.         .%%$$...                     ",
"                  ..&&%%%.         .$$%%%%%..                   ",
"                  ..&&%%%.         .$$%%%%%..                   ",
"                 .%%&&&&&.         .%%%%%%%%%..                 ",
"                 .&&&&&&&.         ............                 ",
"                 .&&&&&%%.                                      ",
"                  .......                                       "
};
