/* XPM */
static char *_06c400f2df34fcbb03081eca6934030324FhrOl1y1ZNcxM[] = {
/* columns rows colors chars-per-pixel */
"64 64 7 1 ",
"  c None",
". c black",
"X c #0099DB",
"o c #2CCFF5",
"O c #2CE8F5",
"+ c #98F2FE",
"@ c #D7FFF9",
/* pixels */
"                                                                ",
"                                                                ",
"                                                                ",
"                                                                ",
"                                                                ",
"                                                                ",
"                                                                ",
"                                                                ",
"                                                                ",
"                                                                ",
"                                                                ",
"                                                                ",
"                                                                ",
"                                                                ",
"                                                                ",
"                                                                ",
"                                                                ",
"                                                                ",
"                                                                ",
"                                                                ",
"                            .......                             ",
"                          ...oXoXo...                           ",
"                        ...X.+ooo+.X...                         ",
"                       ..XoXX.@o@.XXoX..                        ",
"                      ..XXooo.+@+.oooXX..                       ",
"                      ...................                       ",
"                     ..o..oXXoooooXXo..o..                      ",
"                     .X.o..oXXoooXXo..o.X.                      ",
"                    ..o.Xo..oXXoXXo..oX.o..                     ",
"                    .Xo.XXX.........XXX.oX.                     ",
"                    .XX.XXX.oXXXXXo.XXX.XX.                     ",
"                    .X.o.Xoo.oXXXo.ooX.o.X.                     ",
"                    ..+o.oooo.XXX.oooo.o+..                     ",
"                    .+o+@.oXX.XXX.XXo.@+o+.                     ",
"                    ..+@+@.XXX.o.XXX.@+@+..                     ",
"                     .+oo+.XXXo.oXXX.+oo+.                      ",
"                     ..+o.X.Xoo.ooX.X.o+..                      ",
"                      .+.XO.ooo.ooo.oX.+.                       ",
"                      ..XXXX.XX.XX.XXXX..                       ",
"                       ..XXoo.X.X.ooXX..                        ",
"                        ...Xo.X.X.oX...                         ",
"                          ...o...o...                           ",
"                            .......                             ",
"                                                                ",
"                                                                ",
"                                                                ",
"                                                                ",
"                                                                ",
"                                                                ",
"                                                                ",
"                                                                ",
"                                                                ",
"                                                                ",
"                                                                ",
"                                                                ",
"                                                                ",
"                                                                ",
"                                                                ",
"                                                                ",
"                                                                ",
"                                                                ",
"                                                                ",
"                                                                ",
"                                                                "
};
