/* XPM */
static char *_ba73524ca4c4cc7c5eb7850023a00bebWaRiMFTbdMXPIfc[] = {
/* columns rows colors chars-per-pixel */
"64 64 7 1 ",
"  c None",
". c black",
"X c #0099DB",
"o c #2CCFF5",
"O c #2CE8F5",
"+ c #98F2FE",
"@ c #D7FFF9",
/* pixels */
"                                                                ",
"                                                                ",
"                                                                ",
"                                                                ",
"                                                                ",
"                                                                ",
"                                                                ",
"                                                                ",
"                                                                ",
"                         ..............                         ",
"                         ..............                         ",
"                     ......ooXXooXXoo......                     ",
"                     ......ooXXooXXoo......                     ",
"                 ......XX..++oooooo++..XX......                 ",
"                 ......XX..++oooooo++..XX......                 ",
"               ....XXooXXXX..@@oo@@..XXXXooXX....               ",
"               ....XXooXXXX..@@oo@@..XXXXooXX....               ",
"             ....XXXXoooooo..++@@++..ooooooXXXX....             ",
"             ....XXXXoooooo..++@@++..ooooooXXXX....             ",
"             ......................................             ",
"             ......................................             ",
"           ....oo....ooXXXXooooooooooXXXXoo....oo....           ",
"           ....oo....ooXXXXooooooooooXXXXoo....oo....           ",
"           ..XX..oo....ooXXXXooooooXXXXoo....oo..XX..           ",
"           ..XX..oo....ooXXXXooooooXXXXoo....oo..XX..           ",
"         ....oo..XXoo....ooXXXXooXXXXoo....ooXX..oo....         ",
"         ....oo..XXoo....ooXXXXooXXXXoo....ooXX..oo....         ",
"         ..XXoo..XXXXXX..................XXXXXX..ooXX..         ",
"         ..XXoo..XXXXXX..................XXXXXX..ooXX..         ",
"         ..XXXX..XXXXXX..ooXXXXXXXXXXoo..XXXXXX..XXXX..         ",
"         ..XXXX..XXXXXX..ooXXXXXXXXXXoo..XXXXXX..XXXX..         ",
"         ..XX..oo..XXoooo..ooXXXXXXoo..ooooXX..oo..XX..         ",
"         ..XX..oo..XXoooo..ooXXXXXXoo..ooooXX..oo..XX..         ",
"         ....++oo..oooooooo..XXXXXX..oooooooo..oo++....         ",
"         ....++oo..oooooooo..XXXXXX..oooooooo..oo++....         ",
"         ..++oo++@@..ooXXXX..XXXXXX..XXXXoo..@@++oo++..         ",
"         ..++oo++@@..ooXXXX..XXXXXX..XXXXoo..@@++oo++..         ",
"         ....++@@++@@..XXXXXX..oo..XXXXXX..@@++@@++....         ",
"         ....++@@++@@..XXXXXX..oo..XXXXXX..@@++@@++....         ",
"           ..++oooo++..XXXXXXoo..ooXXXXXX..++oooo++..           ",
"           ..++oooo++..XXXXXXoo..ooXXXXXX..++oooo++..           ",
"           ....++oo..XX..XXoooo..ooooXX..XX..oo++....           ",
"           ....++oo..XX..XXoooo..ooooXX..XX..oo++....           ",
"             ..++..XXOO..oooooo..oooooo..ooXX..++..             ",
"             ..++..XXOO..oooooo..oooooo..ooXX..++..             ",
"             ....XXXXXXXX..XXXX..XXXX..XXXXXXXX....             ",
"             ....XXXXXXXX..XXXX..XXXX..XXXXXXXX....             ",
"               ....XXXXoooo..XX..XX..ooooXXXX....               ",
"               ....XXXXoooo..XX..XX..ooooXXXX....               ",
"                 ......XXoo..XX..XX..ooXX......                 ",
"                 ......XXoo..XX..XX..ooXX......                 ",
"                     ......oo......oo......                     ",
"                     ......oo......oo......                     ",
"                         ..............                         ",
"                         ..............                         ",
"                                                                ",
"                                                                ",
"                                                                ",
"                                                                ",
"                                                                ",
"                                                                ",
"                                                                ",
"                                                                ",
"                                                                "
};
