/* XPM */
static char *_23289bf53b448a0c39512c1630bf66dqNdW1JsXiQCygsCQ[] = {
/* columns rows colors chars-per-pixel */
"64 64 21 1 ",
"  c None",
". c black",
"X c #0B1324",
"o c #1A2939",
"O c #472E52",
"+ c #06466E",
"@ c #8D1417",
"# c #941616",
"$ c #CE2D2D",
"% c #DE2121",
"& c #935C20",
"* c #D1842E",
"= c #FFBA2C",
"- c #70538E",
"; c #6C848E",
": c #A8B6BD",
"> c #FFDC93",
", c #A78AC6",
"< c #80A2CA",
"1 c #D7FFF9",
"2 c white",
/* pixels */
"                              ......                            ",
"                           ...++===*...                         ",
"                          .oo+++++o===o.                        ",
"                          .oooo++++o==>o.              ....     ",
"                          .oooo++++o==>o.            ..$$$@@.   ",
"                         .oooooo++++>>=o.           ..$$1$@$$.  ",
"                         .oooo=o++++++==o..        .@@@111@$$.  ",
"                         .ooo==>oo++++**o**.       .$$@@1$@@.   ",
"                         .ooo==>oo++++**o**.       .$@@$$$$.    ",
"                         ..oo*=>>>=+==>>o**.        .......     ",
"                         .*&&oo...=*==>=&**.        111         ",
"                         .***oo-OO.=&&*&*..        111          ",
"                         .***oo-OO.=&&*&*..       111           ",
"                         .&**o-O22%#==&*.        111            ",
"                          .ooo----,,,,,,.       111             ",
"                          .XXo--,,,,,,,-.      111              ",
"                          .XXXo,,,,,,,,..     111               ",
"                      .....XXXo,,,-.222..    111                ",
"                  ....*==ooooXo,--,-,,-..1..111                 ",
"              ....**==***=ooooX.--,-,,-.&==111.                 ",
"             .&&*========*===ooo.......o=&111&&. 1              ",
"            ..&&*========*===ooooooXXX1o=&11*&&..               ",
"           .====&****=====***==ooooooooo=&&=*&1=*.              ",
"            .**===********===**=>>>=====&==**&&=*.              ",
"             ...*=====****===*=*******&&*1=*&==*.               ",
"               .*=====****===*=*******&&*==*&==*.               ",
"              ..++**=======**==>>>==>>=======**.                ",
"             .++oo+++..**=====>>>>=>=======*...                 ",
"             .++Xo+++.+XXX+**=>>===>====*...X.                  ",
"             .++Xo+++.+XXX+**=>>===>====*...X..                 ",
"             .XX++++o.o++oX++++<+++&&&+<+..ooXX.                ",
"            .+XX++++.....++XXXooooo***oX.ooooXX.                ",
"            .+oo+++o.    .o+++<<+++===+..XXooXX..               ",
"            .++++oo.    ...===>=**o===o=.ooXoXX*.               ",
"            .++==.........====>=**o===o=.ooXo***.               ",
"            .==>=&&&......===>==&&****&=...o****.               ",
"            .===*&&>>.=+o..***&&**====*&*...&&&&*.              ",
"            .==***=>>==++oo.=*=*=======&*...*****.              ",
"            ..*&&&=>==+++++.=*=*=======&*...*****.              ",
"             ...&&*==*+++oo.*==*==****=&&**..****.              ",
"               ..*.=**+++++.==*+++==**oo*&&.++***.              ",
"                ....**++++.==+++++..oooo***.++&&*.              ",
"                   ..=.oo..==+++++..oooo***.++++&.              ",
"                     ....++::oo+...ooooo;oo.++++*.              ",
"                      .+++:++oo.  .ooooX;oo.+ooo..              ",
"                      .+++:+++o.  .ooooX;oo..++o.               ",
"                      .+++:+++o.  .ooooX;oo......               ",
"                      .oo:;+++.    .ooXX;;;.                    ",
"                      .++++oo.     ...+++..                     ",
"                     .o++++oo.     ...++..                      ",
"                     .+XXXo++.    ..+++o..                      ",
"                     .+XXXo++.    ..+++o..                      ",
"                    .=+XXo+..     .******.                      ",
"                    .=====.       .&****&.                      ",
"                    .****=.       .&&&&&.                       ",
"                    .****=.       .&&&&&.                       ",
"                    .=*==.         .**&*.                       ",
"                    .**==.         .**&&...                     ",
"                  ..==***.         .&&*****..                   ",
"                  ..==***.         .&&*****..                   ",
"                 .**=====.         .*********..                 ",
"                 .=======.         ............                 ",
"                 .=====**.                                      ",
"                  .......                                       "
};
