/* XPM */
static char *_c86af64a4dc4408df455af7a5ff9e92hVEjppXjjVCLZ1dm[] = {
/* columns rows colors chars-per-pixel */
"64 64 2 1 ",
"  c #3D253B",
". c #523B40",
/* pixels */
"...                           .....                           ..",
"...                           .....                           ..",
"..                ...          ...                ...          .",
"                 .....                           .....          ",
"                 .....                           .....          ",
"      ...        .....                ...        .....          ",
"     .....       .....               .....       .....          ",
"    ......        ...               ......        ...           ",
"    ......                          ......                      ",
"    .....                           .....                       ",
"     ...                   ..        ...                   ..   ",
"                          ...                             ...   ",
"                          ..                              ..    ",
"                                                                ",
"                                                                ",
"                 ..                              ..             ",
"                 ...                             ...            ",
"      .....       ..                  .....       ..            ",
"     .......                         .......                    ",
".    .......                   ..    .......                   .",
".    .......                   ..    .......                   .",
"     ......                          ......                     ",
"      ....            ....            ....            ....      ",
"                     ......                          ......     ",
"                     ......                          ......     ",
"                     ......                          ......     ",
"                      ....                            ....      ",
"             ..                              ..                 ",
".            ..                ..            ..                .",
"..                            ....                            ..",
"...                           .....                           ..",
"...                           .....                           ..",
"...                           .....                           ..",
"...                           .....                           ..",
"..                ...          ...                ...          .",
"                 .....                           .....          ",
"                 .....                           .....          ",
"      ...        .....                ...        .....          ",
"     .....       .....               .....       .....          ",
"    ......        ...               ......        ...           ",
"    ......                          ......                      ",
"    .....                           .....                       ",
"     ...                   ..        ...                   ..   ",
"                          ...                             ...   ",
"                          ..                              ..    ",
"                                                                ",
"                                                                ",
"                 ..                              ..             ",
"                 ...                             ...            ",
"      .....       ..                  .....       ..            ",
"     .......                         .......                    ",
".    .......                   ..    .......                   .",
".    .......                   ..    .......                   .",
"     ......                          ......                     ",
"      ....            ....            ....            ....      ",
"                     ......                          ......     ",
"                     ......                          ......     ",
"                     ......                          ......     ",
"                      ....                            ....      ",
"             ..                              ..                 ",
".            ..                ..            ..                .",
"..                            ....                            ..",
"...                           .....                           ..",
"...                           .....                           .."
};
