/* XPM */
static char *_d2130929b4345b8f09df0246cf3f9b2RV3WbrYG9dh2Q9m4[] = {
/* columns rows colors chars-per-pixel */
"64 64 10 1 ",
"  c None",
". c black",
"X c #FF6600",
"o c #FF0044",
"O c #63C74D",
"+ c #FEAE34",
"@ c #FEE761",
"# c #7A249C",
"$ c #00DBFF",
"% c white",
/* pixels */
"                                                                ",
"                              ....  ......                      ",
"                              ....  ......                      ",
"                      ....  ..%%@@..@@%%@@..                    ",
"                      ....  ..%%@@..@@%%@@..                    ",
"                    ..%%@@..@@++++..++++++..                    ",
"                    ..%%@@..@@++++..++++++..                    ",
"                ....@@++++..++++++++++..++..                    ",
"                ....@@++++..++++++++++..++..                    ",
"              ..@@..++..++++++..++....##....                    ",
"              ..@@..++..++++++..++....##....                    ",
"            ..@@......oo......$$....##%%##....                  ",
"            ..@@......oo......$$....##%%##....                  ",
"            ....XX..oo%%oo..$$%%$$..######..%%..                ",
"            ....XX..oo%%oo..$$%%$$..######..%%..                ",
"            ..XX%%..oooooo..$$$$$$....##....++@@..              ",
"            ..XX%%..oooooo..$$$$$$....##....++@@..              ",
"            ....XX....oo..@@..$$..@@@@..@@..++++@@..            ",
"            ....XX....oo..@@..$$..@@@@..@@..++++@@..            ",
"            ..@@..@@@@..@@++@@..@@++++++++@@..++......          ",
"            ..@@..@@@@..@@++@@..@@++++++++@@..++......          ",
"            ..++++++++++++++++@@++++++++++++++..%%OO..          ",
"            ..++++++++++++++++@@++++++++++++++..%%OO..          ",
"            ..++++++++@@++++....++++@@++++++@@..OOOO..          ",
"            ..++++++++@@++++....++++@@++++++@@..OOOO..          ",
"            ..@@++++@@++++..%%%%..++++@@++%%++@@..OO..          ",
"            ..@@++++@@++++..%%%%..++++@@++%%++@@..OO..          ",
"              ..++++@@++..@@%%%%%%..++@@++++++++....            ",
"              ..++++@@++..@@%%%%%%..++@@++++++++....            ",
"              ..@@++@@++..@@@@@@%%..++@@%%++++@@..              ",
"              ..@@++@@++..@@@@@@%%..++@@%%++++@@..              ",
"              ..@@++@@++++..@@@@..++++@@++++@@..                ",
"              ..@@++@@++++..@@@@..++++@@++++@@..                ",
"                ..++++@@++++....++++@@++++@@..                  ",
"                ..++++@@++++....++++@@++++@@..                  ",
"                ..@@++++++++++++++++++@@@@..                    ",
"                ..@@++++++++++++++++++@@@@..                    ",
"                ..@@++++++++@@@@@@........                      ",
"                ..@@++++++++@@@@@@........                      ",
"                  ..++++++........++++++@@..                    ",
"                  ..++++++........++++++@@..                    ",
"                ..@@++++++++++++++++++++@@..                    ",
"                ..@@++++++++++++++++++++@@..                    ",
"                ..@@++++@@++++++++++@@++++@@..                  ",
"                ..@@++++@@++++++++++@@++++@@..                  ",
"              ..@@++++%%@@++++@@++++@@%%++@@..                  ",
"              ..@@++++%%@@++++@@++++@@%%++@@..                  ",
"              ..@@++%%@@++++++@@++++++@@%%++@@..                ",
"              ..@@++%%@@++++++@@++++++@@%%++@@..                ",
"            ..@@++++++@@++++++%%++++++@@++++++..                ",
"            ..@@++++++@@++++++%%++++++@@++++++..                ",
"            ..@@..++@@++++++++@@++++++++@@++..@@..              ",
"            ..@@..++@@++++++++@@++++++++@@++..@@..              ",
"          ..@@++..++++++++++++++++++++++++++..++@@..            ",
"          ..@@++..++++++++++++++++++++++++++..++@@..            ",
"            ....@@@@@@++++++........++++++@@++....              ",
"            ....@@@@@@++++++........++++++@@++....              ",
"                ......@@@@..@@@@@@..++@@@@....                  ",
"                ......@@@@..@@@@@@..++@@@@....                  ",
"                      ....++++++++++......                      ",
"                      ....++++++++++......                      ",
"                          ..........                            ",
"                          ..........                            ",
"                                                                "
};
