/* XPM */
static char *c4772c6898fa44c7c6a9dab5420e0f9daTG5N76uORVtUIlT[] = {
/* columns rows colors chars-per-pixel */
"64 64 10 1 ",
"  c None",
". c black",
"X c #FF6600",
"o c #FF0044",
"O c #63C74D",
"+ c #FEAE34",
"@ c #FEE761",
"# c #7A249C",
"$ c #00DBFF",
"% c white",
/* pixels */
"                                                                ",
"                                                                ",
"                                                                ",
"                                                                ",
"                                                                ",
"                                                                ",
"                                                                ",
"                                                                ",
"                                                                ",
"                                                                ",
"                                                                ",
"                                                                ",
"                                                                ",
"                                                                ",
"                                                                ",
"                                                                ",
"                                                                ",
"                              .. ...                            ",
"                          .. .%@.@%@.                           ",
"                         .%@.@++.+++.                           ",
"                       ..@++.+++++.+.                           ",
"                      .@.+.+++.+..#..                           ",
"                     .@...o...$..#%#..                          ",
"                     ..X.o%o.$%$.###.%.                         ",
"                     .X%.ooo.$$$..#..+@.                        ",
"                     ..X..o.@.$.@@.@.++@.                       ",
"                     .@.@@.@+@.@++++@.+...                      ",
"                     .++++++++@+++++++.%O.                      ",
"                     .++++@++..++@+++@.OO.                      ",
"                     .@++@++.%%.++@+%+@.O.                      ",
"                      .++@+.@%%%.+@++++..                       ",
"                      .@+@+.@@@%.+@%++@.                        ",
"                      .@+@++.@@.++@++@.                         ",
"                       .++@++..++@++@.                          ",
"                       .@+++++++++@@.                           ",
"                       .@++++@@@....                            ",
"                        .+++....+++@.                           ",
"                       .@++++++++++@.                           ",
"                       .@++@+++++@++@.                          ",
"                      .@++%@++@++@%+@.                          ",
"                      .@+%@+++@+++@%+@.                         ",
"                     .@+++@+++%+++@+++.                         ",
"                     .@.+@++++@++++@+.@.                        ",
"                    .@+.+++++++++++++.+@.                       ",
"                     ..@@@+++....+++@+..                        ",
"                       ...@@.@@@.+@@..                          ",
"                          ..+++++...                            ",
"                            .....                               ",
"                                                                ",
"                                                                ",
"                                                                ",
"                                                                ",
"                                                                ",
"                                                                ",
"                                                                ",
"                                                                ",
"                                                                ",
"                                                                ",
"                                                                ",
"                                                                ",
"                                                                ",
"                                                                ",
"                                                                ",
"                                                                "
};
