/* XPM */
static char *ff35f72c1d29411fe5b0ee232aa664efRigfNvlB8chPrcxL[] = {
/* columns rows colors chars-per-pixel */
"64 64 8 1 ",
"  c #3D253B",
". c #523B40",
"X c #926D7B",
"o c #A1887C",
"O c #705C85",
"+ c #C1B6A2",
"@ c #DAD9C3",
"# c #F3FFD8",
/* pixels */
"...                           .....                           ..",
"...                           .....                           ..",
"..                ...          ...                ...          .",
"                 .....  ++@@@@@@@@@@@@++         .....          ",
"                 .....  ++@@@@@@@@@@@@++         .....          ",
"      ...        ...++@@@@@@@@@@@@@@@@@@@@++     .....          ",
"     .....       ...++@@@@@@@@@@@@@@@@@@@@++     .....          ",
"    ......        @@@@@@@@@@@@@@@@@@@@@@@@@@++    ...           ",
"    ......        @@@@@@@@@@@@@@@@@@@@@@@@@@++                  ",
"    .....       @@@@@@@@@@@@@@@@@@@@@@@@@@@@@@++                ",
"     ...        @@@@@@@@@@@@@@@@@@@@@@@@@@@@@@++           ..   ",
"              ++@@@@@@@@@@@@@@@@@@@@@@@@@@##@@++          ...   ",
"              ++@@@@@@@@@@@@@@@@@@@@@@@@@@##@@++          ..    ",
"              ++@@@@@@@@@@@@@@@@@@@@@@@@##@@++++++              ",
"              ++@@@@@@@@@@@@@@@@@@@@@@@@##@@++++++              ",
"            XXXXoo@@@@@@@@@@@@@@@@######@@++++++++.             ",
"            XXXXoo@@@@@@@@@@@@@@@@######@@++++++++..            ",
"      ..... XXXXXXoo@@@@@@@@@@####@@++++++++++++++++++          ",
"     .......XXXXXXoo@@@@@@@@@@####@@++++++++++++++++++          ",
".    .....XXXXXXXXXXoo++++++++++++++++++++++++++++@@@@++       .",
".    .....XXXXXXXXXXoo++++++++++++++++++++++++++++@@@@++       .",
"     .....XXXXXXOOXXXXoooooooooooooooo++++++++++@@@@@@@@++      ",
"      ....XXXXXXOOXXXXoooooooooooooooo++++++++++@@@@@@@@++      ",
"          XXOOOOOOXXXXoooooooooooooooo++++++++@@@@@@@@@@@@oo    ",
"          XXOOOOOOXXXXoooooooooooooooo++++++++@@@@@@@@@@@@oo    ",
"        ++ooOOOOXXXXXXoooooooooooooooooo++++@@@@@@@@@@@@@@++    ",
"        ++ooOOOOXXXXXXoooooooooooooooooo++++@@@@@@@@@@@@@@++    ",
"      ++++++ooOOXXXXoooooooooooooooooooo@@@@@@@@@@@@##@@++++    ",
".     ++++++ooOOXXXXoooooooooooooooooooo@@@@@@@@@@@@##@@++++   .",
"..    ++++++++ooXXXXoooooooooooooooo++++@@@@@@@@####@@++++++  ..",
"...   ++++++++ooXXXXoooooooooooooooo++++@@@@@@@@####@@++++++  ..",
"... XX++++++++++ooXXooooooooooooooXXoo++@@@@####@@++++++++++  ..",
"... XX++++++++++ooXXooooooooooooooXXoo++@@@@####@@++++++++++  ..",
"... XXoo++@@@@@@@@@@++ooooooooooXXXXXXoo++++++++++++++++++++oo..",
"..  XXoo++@@@@@@@@@@++ooooooooooXXXXXXoo++++++++++++++++++++oo .",
"    XXXXoo++@@@@@@@@@@@@++ooooXXXXXXXXXXoooooooo++++++++++++++  ",
"    XXXXoo++@@@@@@@@@@@@++ooooXXXXXXXXXXoooooooo++++++++++++++  ",
"  XXXXXXOOXXoo++@@@@@@@@@@##@@XXXXOOXXXXoooooooo++++++++++++++  ",
"  XXXXXXOOXXoo++@@@@@@@@@@##@@XXXXOOXXXXoooooooo++++++++++++++  ",
"  XXOOOOOOXXXXXXoooo++####@@++++XXOOXXoooooooooooo++++++++++++  ",
"  XXOOOOOOXXXXXXoooo++####@@++++XXOOXXoooooooooooo++++++++++++  ",
"  OOOOOOOOXXXXXXoooooooooooo++++XXOOXXoooooooooooo++++++++++++  ",
"  OOOOOOOOXXXXXXoooooooooooo++++XXOOXXoooooooooooo++++++++++++  ",
"  OOOOOOXXXXXXXXoooooooooooo++oo++++XXoooooooooooooo++++++++++  ",
"  OOOOOOXXXXXXXXoooooooooooo++oo++++XXoooooooooooooo++++++++++  ",
"    OOXXXXOOOOXXooooooXXoooooo++++++++oooooo++++oooo++++++++oo  ",
"    OOXXXXOOOOXXooooooXXoooooo++++++++oooooo++++oooo++++++++oo  ",
"      XXXXOOOOooooooXXoo@@@@@@@@@@@@@@@@@@@@##@@++oo++++oooo    ",
"      XXXXOOOOooooooXXoo@@@@@@@@@@@@@@@@@@@@##@@++oo++++oooo    ",
"      ....OOXXooooXXOOXXoo@@@@@@@@@@@@@@####@@++++oooooo        ",
"     .....OOXXooooXXOOXXoo@@@@@@@@@@@@@@####@@++++oooooo        ",
".    .......  XXXXXXOOXXXXoo@@@@++++++@@@@@@++++++oo           .",
".    .......  XXXXXXOOXXXXoo@@@@++++++@@@@@@++++++oo           .",
"     ......         XXXXXXooooooooooXXoooo++++++oo              ",
"      ....          XXXXXXooooooooooXXoooo++++++oo    ....      ",
"                     .XXXXooooooooXXOOoooooo++oo     ......     ",
"                     .XXXXooooooooXXOOoooooo++oo     ......     ",
"                     ...XXooooooXXOOOOoooooooo       ......     ",
"                      ..XXooooooXXOOOOoooooooo        ....      ",
"             ..           XXXXXX      XXXXXX ..                 ",
".            ..           XXXXXX.     XXXXXX ..                .",
"..                            ....                            ..",
"...                           .....                           ..",
"...                           .....                           .."
};
