/* XPM */
static char *_651074690040[] = {
/* columns rows colors chars-per-pixel */
"64 64 10 1 ",
"  c black",
". c #4E0D17",
"X c #8D1417",
"o c #CE2D2D",
"O c #865028",
"+ c #D88F2F",
"@ c #E2C662",
"# c #82C6CC",
"$ c #D7FFF9",
"% c purple",
/* pixels */
"%%%%%%%%%%%%%%%%%%%%%%%%%%%%%%%%%%%%%%%%%%%%%%%%%%%%%%%%%%%%%%%%",
"%%%%%%%%%%%%%%%%%%%%%%%%%%%%%%%%%%%%%%%%%%%%%%%%%%%%%%%%%%%%%%%%",
"%%%%%%%%%%%%%%%%%%%%%%%%%%%%%%%%      %%%%%%%%%%%%%%%%%%%%%%%%%%",
"%%%%%%%%%%%%%%%%%%%%%%%%%%%%%   ooooXX  %%%%%%%%%%%%%%%%%%%%%%%%",
"%%%%%%%%%%%%%%%%%%%%%%%%%%%% oooXXoooooX %%%%%%%%%%%%%%%%%%%%%%%",
"%%%%%%%%%%%%%%%%%%%%%%%%%%%% oooX@@ooooo %%%%%%%%%%%%%%%%%%%%%%%",
"%%%%%%%%%%%%%%%%%%%%%%%%%%% XXXoo+@@ooXX+ %%%%%%%%%%%%%%%%%%%%%%",
"%%%%%%%%%%%%%%%%%%%%%%%%%%% XXXXo++@@@XX@ %%%%%%%%%%%%%%%%%%%%%%",
"%%%%%%%%%%%%%%%%%%%%%%%%%%% XXXXo++@@@@@@ %%%%%%%%%%%%%%%%%%%%%%",
"%%%%%%%%%%%%%%%%%%%%%%%%%%% XXXXo++@@@@@@ %%%%%%%%%%%%%%%%%%%%%%",
"%%%%%%%%%%%%%%%%%%%%%%%%%%% .XXX+++@@@@@@ %%%%%%%%%%%%%%%%%%%%%%",
"%%%%%%%%%%%%%%%%%%%%%%%%%%% X..++OOO++@@+ %%%%%%%%%%%%%%%%%%%%%%",
"%%%%%%%%%%%%%%%%%%%%%%%%%%% XXX++#$$OO@@# %%%%%%%%%%%%%%%%%%%%%%",
"%%%%%%%%%%%%%%%%%%%%%%%%%%% X..X+++@@@@@+ %%%%%%%%%%%%%%%%%%%%%%",
"%%%%%%%%%%%%%%%%%%%%%%%%%%%% XXXo++++++++ %%%%%%%%%%%%%%%%%%%%%%",
"%%%%%%%%%%%%%%%%%%%%%%%%%%%% XXXXo+++++@ %%%%%%%%%%%%%%%%%%%%%%%",
"%%%%%%%%%%%%%%%%%%%%%%%%%%%%% XX o++@@@@ %%%%%%%%%%%%%%%%%%%%%%%",
"%%%%%%%%%%%%%%%%%%%%%%%%%%%%% XX o++oooo %%%%%%%%%%%%%%%%%%%%%%%",
"%%%%%%%%%%%%%%%%%%%%%%%%%    XXXX oo@@@  %%%%%%%%%%%%%%%%%%%%%%%",
"%%%%%%%%%%%%%%%%%%%%%%   ..XXXXX..     X.  %%%%%%%%%%%%%%%%%%%%%",
"%%%%%%%%%%%%%%%%%%%%% XXooX@X..XooooXX.oo.X %%%%%%%%%%%%%%%%%%%%",
"%%%%%%%%%%%%%%%%%%%%% oooooX@ooo$ooooooo#oX %%%%%%%%%%%%%%%%%%%%",
"%%%%%%%%%%%%%%%%%%%%% XX$ooX@oooooo#$$#ooo  %%%%%%%%%%%%%%%%%%%%",
"%%%%%%%%%%%%%%%%%%%%%%  #oX..XXoooo$$$$oo  %%%%%%%%%%%%%%%%%%%%%",
"%%%%%%%%%%%%%%%%%%%%%%  o+@  ...XXo$$$$oX + %%%%%%%%%%%%%%%%%%%%",
"%%%%%%%%%%%%%%%%%%%%%%  o+@  ...XXo#$$#oX + %%%%%%%%%%%%%%%%%%%%",
"%%%%%%%%%%%%%%%%%%%%% oo@++ +++X.XXooooX+ O %%%%%%%%%%%%%%%%%%%%",
"%%%%%%%%%%%%%%%%%%%%% oo@@o  OO+@@@XXX.@ ++  %%%%%%%%%%%%%%%%%%%",
"%%%%%%%%%%%%%%%%%%%%% ooo  %%   O++@@@@O XX.. %%%%%%%%%%%%%%%%%%",
"%%%%%%%%%%%%%%%%%%%% o@@@ %%%%% +@@+++O@ ..XX %%%%%%%%%%%%%%%%%%",
"%%%%%%%%%%%%%%%%%%%% o++ %%%%%% OO+@@@@O  +OO %%%%%%%%%%%%%%%%%%",
"%%%%%%%%%%%%%%%%%%%% o@@ %%%%% X+@@+OOO@X O++X %%%%%%%%%%%%%%%%%",
"%%%%%%%%%%%%%%%%%%%% o@@ %%%%% X+@@+OOO@X O++X %%%%%%%%%%%%%%%%%",
"%%%%%%%%%%%%%%%%%%% oX  %%%%%% o$oo@@@@XX  ++X %%%%%%%%%%%%%%%%%",
"%%%%%%%%%%%%%%%%%%  XX  %%%%%  o#XooooXX.  XXX.  %%%%%%%%%%%%%%%",
"%%%%%%%%%%%%%%%%%  ooXoo %%% XXoXXooXX..X %  ..XX %%%%%%%%%%%%%%",
"%%%%%%%%%%%%%%%  o.     o %% ooXXXo   .XX %%% X  X %%%%%%%%%%%%%",
"%%%%%%%%%%%%%%%     #$$$  %% oo@@@o XXX++ %%% X    %%%%%%%%%%%%%",
"%%%%%%%%%%%%%%%%%%%%#$$#%%%% @@oo@  XX+X+ %%%% $$#%%%%%%%%%%%%%%",
"%%%%%%%%%%%%%%%%%%%%#$$#%%% @oooo % ++XX %%%%%#$#%%%%%%%%%%%%%%%",
"%%%%%%%%%%%%%%%%%%%%#$##%%% @oooo % ++XX %%%%%#$#%%%%%%%%%%%%%%%",
"%%%%%%%%%%%%%%%%%%%%#$%%%%% XoooX % ..XX %%%%%#$#%%%%%%%%%%%%%%%",
"%%%%%%%%%%%%%%%%%%%%%#%%%%% o..X %% XX. %%%%%%%$#%%%%%%%%%%%%%%%",
"%%%%%%%%%%%%%%%%%%%%%#%%%%% oXXX %% ++X %%%%%%%#%%%%%%%%%%%%%%%%",
"%%%%%%%%%%%%%%%%%%%%%#%%%% X@@@ %%% XX+ %%%%%%%#%%%%%%%%%%%%%%%%",
"%%%%%%%%%%%%%%%%%%%%%%%%%% ooXX %%% XXX %%%%%%%#%%%%%%%%%%%%%%%%",
"%%%%%%%%%%%%%%%%%%%%%%%%%% oo  %%%% XX+ %%%%%%%#%%%%%%%%%%%%%%%%",
"%%%%%%%%%%%%%%%%%%%%%#%%%% @o %%%%% ++X %%%%%%%%%%%%%%%%%%%%%%%%",
"%%%%%%%%%%%%%%%%%%%%%#%%%% @o %%%%% ++X %%%%%%%#%%%%%%%%%%%%%%%%",
"%%%%%%%%%%%%%%%%%%%%%#%%%% o@ %%%%% XXX. %%%%%%%%%%%%%%%%%%%%%%%",
"%%%%%%%%%%%%%%%%%%%%%%%%  Xo %%%%%% XXXX %%%%%%%%%%%%%%%%%%%%%%%",
"%%%%%%%%%%%%%%%%%%%%%%%%Xooo %%%%%%%#$XX %%%%%%%%%%%%%%%%%%%%%%%",
"%%%%%%%%%%%%%%%%%%%%%%%%XooX#%%%%%%%#$$#%%%%%%%%%%%%%%%%%%%%%%%%",
"%%%%%%%%%%%%%%%%%%%%%%%%%#$$#%%%%%%%#$$#%%%%%%%%%%%%%%%%%%%%%%%%",
"%%%%%%%%%%%%%%%%%%%%%%%%%#$$#%%%%%%%##$%%%%%%%%%%%%%%%%%%%%%%%%%",
"%%%%%%%%%%%%%%%%%%%%%%%%%#$$%%%%%%%%%%#%%%%%%%%%%%%%%%%%%%%%%%%%",
"%%%%%%%%%%%%%%%%%%%%%%%%%%#$%%%%%%%%%%#%%%%%%%%%%%%%%%%%%%%%%%%%",
"%%%%%%%%%%%%%%%%%%%%%%%%%%%#%%%%%%%%%%%%%%%%%%%%%%%%%%%%%%%%%%%%",
"%%%%%%%%%%%%%%%%%%%%%%%%%%%#%%%%%%%%%%#%%%%%%%%%%%%%%%%%%%%%%%%%",
"%%%%%%%%%%%%%%%%%%%%%%%%%%%#%%%%%%%%%%#%%%%%%%%%%%%%%%%%%%%%%%%%",
"%%%%%%%%%%%%%%%%%%%%%%%%%%%#%%%%%%%%%%#%%%%%%%%%%%%%%%%%%%%%%%%%",
"%%%%%%%%%%%%%%%%%%%%%%%%%%%#%%%%%%%%%%#%%%%%%%%%%%%%%%%%%%%%%%%%",
"%%%%%%%%%%%%%%%%%%%%%%%%%%%%%%%%%%%%%%%%%%%%%%%%%%%%%%%%%%%%%%%%",
"%%%%%%%%%%%%%%%%%%%%%%%%%%%#%%%%%%%%%%%%%%%%%%%%%%%%%%%%%%%%%%%%"
};
